<svg width="23" height="26" viewBox="0 0 23 26" fill="none" xmlns="http://www.w3.org/2000/svg">
<path d="M22.9385 25.3616C22.9385 25.3616 19.1593 23.9256 16.1017 22.7752H3.2433C1.7209 22.7752 0.487305 21.5112 0.487305 19.9528V3.40879C0.487305 1.85119 1.7209 0.587189 3.2433 0.587189H20.1809C21.7033 0.587189 22.9377 1.85119 22.9377 3.40879V17.6576L22.9385 17.6568V25.3616ZM19.6201 16.0848C19.3561 15.7696 18.8913 15.7336 18.5841 16.0032C18.5601 16.024 16.1665 18.08 11.7113 18.08C7.3129 18.08 4.8825 16.0384 4.8385 16.0016C4.5305 15.7328 4.0681 15.7704 3.8041 16.0848C3.5393 16.4008 3.5761 16.8752 3.8841 17.1464C3.9985 17.2456 6.7209 19.5848 11.7113 19.5848C16.7041 19.5848 19.4273 17.2456 19.5401 17.1464C19.8481 16.8752 19.8849 16.4008 19.6201 16.0848Z" fill="black"/>
</svg>
