<svg width="94" height="24" viewBox="0 0 94 24" fill="none" xmlns="http://www.w3.org/2000/svg">
<path d="M9.944 23.384C3.672 23.384 0.44 19.384 0.44 13.4V0.599998H4.856V13.752C4.856 17.528 7.192 19.128 9.976 19.128C12.728 19.128 15.032 17.528 15.032 13.752V0.599998H19.416V13.4C19.416 19.384 16.248 23.384 9.944 23.384ZM31.0153 23.384C28.7432 23.384 25.6392 23.064 22.7912 21.112V16.504H23.1752C25.7992 19.224 29.2552 19.64 31.1432 19.64C32.9992 19.64 35.2393 19.16 35.2393 17.08C35.2393 13.336 22.7912 16.12 22.7912 8.984C22.7912 5.368 26.3432 3.416 30.6952 3.416C33.7673 3.416 36.5192 4.376 38.3433 5.816V9.848H37.9913C36.2312 8.088 33.3512 6.968 30.5033 6.968C28.3912 6.968 26.4392 7.704 26.4392 9.304C26.4392 13.08 39.4312 10.296 39.4312 17.304C39.4312 21.08 36.4233 23.384 31.0153 23.384ZM52.3335 23.384C45.7735 23.384 41.5175 19.096 41.5175 13.368C41.5175 7.864 45.5175 3.416 51.4695 3.416C56.4615 3.416 60.4935 6.552 60.4935 11.832C60.4935 12.376 60.4615 12.952 60.3335 13.624L45.5175 13.176C45.5495 18.616 50.5415 19.384 52.8455 19.384C55.1815 19.384 57.5815 18.744 59.2775 17.528H59.5975V21.624C58.0295 22.648 55.4695 23.384 52.3335 23.384ZM45.6775 11.928L56.7815 11.768C56.5895 9.016 54.3495 7.192 51.5335 7.192C49.2615 7.192 46.2855 8.504 45.6775 11.928ZM63.4872 23V3.8H67.9352L66.9752 14.712H67.2952C67.8072 6.264 70.7192 3.416 75.1352 3.416V8.408H74.9112C73.9192 8.088 72.9592 8.12 72.0632 8.376C68.6392 9.592 67.7752 14.136 67.7752 18.232V23H63.4872ZM85.4352 23.384C83.1632 23.384 80.0592 23.064 77.2112 21.112V16.504H77.5952C80.2192 19.224 83.6752 19.64 85.5632 19.64C87.4192 19.64 89.6592 19.16 89.6592 17.08C89.6592 13.336 77.2112 16.12 77.2112 8.984C77.2112 5.368 80.7632 3.416 85.1152 3.416C88.1872 3.416 90.9392 4.376 92.7632 5.816V9.848H92.4112C90.6512 8.088 87.7712 6.968 84.9232 6.968C82.8112 6.968 80.8592 7.704 80.8592 9.304C80.8592 13.08 93.8512 10.296 93.8512 17.304C93.8512 21.08 90.8432 23.384 85.4352 23.384Z" fill="black"/>
</svg>
